<svg xmlns="http://www.w3.org/2000/svg" viewBox="0 0 271 261.16"><defs><style>.cls-1{fill:#eee;}.cls-2{fill:#e1e1e1;}.cls-3{fill:#fbce3f;}.cls-4{fill:#eea335;}.cls-5{fill:#fedc86;}</style></defs><g id="Calque_2" data-name="Calque 2"><g id="Calque_1-2" data-name="Calque 1"><path class="cls-1" d="M0,143.18V131.94c.34-.58.93-1.14,1-1.74.71-9.48,2.63-18.58,8.3-26.49,2.56-3.57,4.86-7.43,7.92-10.53A99.82,99.82,0,0,1,39.76,76.43c4.58-2.56,8.81-5.77,13.4-8.3,10-5.52,17.93-13,22.84-23.41,3.39-7.2,6.66-14.46,10.3-21.53,3.54-6.9,8.43-12.51,15.58-16.18A55.94,55.94,0,0,1,122,1.19a6.74,6.74,0,0,0,1.38.5c15.35,2.11,28.37,9.13,39.3,19.75,5.79,5.62,10.58,12.29,15.74,18.54,4.48,5.41,8.38,11.41,13.4,16.25,6.56,6.3,14.11,11.54,21,17.54,4.9,4.27,9.89,8.6,13.92,13.64,9.06,11.32,10.81,25.36,12.5,39.09A75.63,75.63,0,0,1,238.3,150c-2.89,15-6.84,29.52-16.25,42-4.74,6.3-9.42,12.44-15.73,17.42a75.59,75.59,0,0,1-23.82,12.75c-4.9,1.6-10,2.86-14.67,4.91-8.55,3.71-15.47,10-22.65,15.76-6.72,5.43-13.42,10.86-21.52,14.19-1.45.59-2.82,1.38-4.23,2.08-2.84-.81-5.71-1.52-8.52-2.44-10.29-3.39-19.27-9.21-27.19-16.37C77,234.23,71,227.38,65,220.63c-5.35-6-10.16-12.42-15.52-18.38a65.24,65.24,0,0,0-10.74-9.95c-6.29-4.43-13.19-8-19.57-12.29S7.62,170.06,4.68,162.75A52.37,52.37,0,0,1,1,145.18C1,144.5.34,143.85,0,143.18ZM185.79,92.69c-10.39-5.46-21.45-6.71-32.91-5.2-16.95,2.23-29.18,11.64-38,25.76a43.11,43.11,0,0,0-6.06,19.84,47.84,47.84,0,0,0,6.09,28c.76,1.08,1.58,2.13,2.29,3.24a46.74,46.74,0,0,0,15.27,15.18c10.1,6.11,20.75,9.17,32.66,8.2a56.29,56.29,0,0,0,28.65-10.86c5.1-3.65,8.69-8.67,12.23-13.79a41.61,41.61,0,0,0,7.25-21.53c.64-10.3-1-20.1-6.76-29.19C201.16,103.91,194.58,97.23,185.79,92.69Z"/><path class="cls-2" d="M122,1.19A73.79,73.79,0,0,1,144.74.6a141.48,141.48,0,0,1,19.47,3.24c10,2.58,18.63,7.75,26.44,14.6,6.13,5.38,10.92,11.79,16,18s9.8,12.78,15.4,18.49c5.42,5.53,11.75,10.18,17.7,15.19,3.49,3,7.06,5.8,10.55,8.76,11.07,9.39,16.13,21.9,18.55,35.79.32,1.87.71,3.74,1.16,5.58.1.39.62.66.95,1v28.09c-.67,1.42-1.67,2.78-2,4.27-2.88,14.44-7.4,28.15-16.57,40-4.47,5.77-8.94,11.4-14.76,16-7.64,6-15.9,10.65-25.32,13A64.45,64.45,0,0,0,190,232.41c-7.06,5.07-13.65,10.79-20.48,16.17s-14.61,9.48-23.39,11.15a15.31,15.31,0,0,0-3.19,1.43H126.57c-.49-.35-.93-.87-1.47-1-1.87-.43-3.78-.72-5.67-1.07,1.41-.7,2.78-1.49,4.23-2.08,8.1-3.33,14.8-8.76,21.52-14.19,7.18-5.79,14.1-12.05,22.65-15.76,4.71-2,9.77-3.31,14.67-4.91a75.59,75.59,0,0,0,23.82-12.75c6.31-5,11-11.12,15.73-17.42,9.41-12.5,13.36-27,16.25-42a75.63,75.63,0,0,0,.88-23.47c-1.69-13.73-3.44-27.77-12.5-39.09-4-5-9-9.37-13.92-13.64-6.87-6-14.42-11.24-21-17.54-5-4.84-8.92-10.84-13.4-16.25-5.16-6.25-9.95-12.92-15.74-18.54C151.71,10.82,138.69,3.8,123.34,1.69A6.74,6.74,0,0,1,122,1.19Z"/><path class="cls-3" d="M114.88,161.07a47.84,47.84,0,0,1-6.09-28,43.11,43.11,0,0,1,6.06-19.84c8.85-14.12,21.08-23.53,38-25.76,11.46-1.51,22.52-.26,32.91,5.2.32,1,.57,2,1,2.88a49.09,49.09,0,0,1,1.83,36.16c-4.65,14.28-14.33,24.13-28,30.17a51.7,51.7,0,0,1-36.41,2.34C121.06,163.33,118,162.14,114.88,161.07Zm8.64-16.18c0,3.35,1.33,5.27,3.78,5.35s4.18-2.22,4.41-5.21a27.63,27.63,0,0,1,5.75-15.49c1.67-2.1,3.81-3.81,5.66-5.79a3.44,3.44,0,0,0,.07-5c-1.38-1.61-3.06-2.11-4.93-.73C129.2,124.69,124.15,133.58,123.52,144.89Z"/><path class="cls-4" d="M114.88,161.07c3.11,1.07,6.18,2.26,9.34,3.17a51.7,51.7,0,0,0,36.41-2.34c13.64-6,23.32-15.89,28-30.17a49.09,49.09,0,0,0-1.83-36.16c-.41-.92-.66-1.91-1-2.88,8.79,4.54,15.37,11.22,20.68,19.63,5.74,9.09,7.4,18.89,6.76,29.19A41.61,41.61,0,0,1,206,163c-3.54,5.12-7.13,10.14-12.23,13.79a56.29,56.29,0,0,1-28.65,10.86c-11.91,1-22.56-2.09-32.66-8.2a46.74,46.74,0,0,1-15.27-15.18C116.46,163.2,115.64,162.15,114.88,161.07Z"/><path class="cls-5" d="M123.52,144.89c.63-11.31,5.68-20.2,14.74-26.89,1.87-1.38,3.55-.88,4.93.73a3.44,3.44,0,0,1-.07,5c-1.85,2-4,3.69-5.66,5.79A27.63,27.63,0,0,0,131.71,145c-.23,3-2.08,5.28-4.41,5.21S123.49,148.24,123.52,144.89Z"/></g></g></svg>