<svg xmlns="http://www.w3.org/2000/svg" viewBox="0 0 249.75 249.99"><defs><style>.cls-1{fill:#575c6f;}.cls-2{fill:#a07439;}.cls-3{fill:#463c4b;}.cls-4{fill:#d0bc68;}.cls-5{fill:#555a6e;}</style></defs><g id="Calque_2" data-name="Calque 2"><g id="Calque_1-2" data-name="Calque 1"><path class="cls-1" d="M65.35,165.55a12.31,12.31,0,0,0-1.06-2.42c-14.24-19.72-20.87-41.76-19.53-66,1.08-19.6,7-37.73,18.6-53.78a4.21,4.21,0,0,0,.47-5c-1.72-3.4-3.13-6.94-2.35-10.91,1.57-8,9.9-13.18,17.31-9.76,5.32,2.45,8.84,1.32,13.4-1.6,54.1-34.68,127.21-11,150.12,49,13,34,8.92,66.65-11.81,96.89a4,4,0,0,0-.36,4.53c1.75,3.69,3.36,7.38,2.27,11.7a13.14,13.14,0,0,1-16.78,9.51,2.53,2.53,0,0,1-.78-.3c-4.6-3.25-8.23-1.54-12.56,1.32-34.07,22.5-80.56,21.49-113.94-2.1a42.33,42.33,0,0,0-4.23-2.35,18.83,18.83,0,0,0-1.78-2.35c-4-3.91-8.08-7.77-12.13-11.66C68.58,168.69,67,167.11,65.35,165.55Zm179.93-63.1c-.25-2.38-.64-4.75-.72-7.13-.3-10-2.89-19.52-6.36-28.73A92,92,0,0,0,208.31,26C186.41,8.88,161.54,1.83,133.78,5.51A97,97,0,0,0,87.44,24.67a3.53,3.53,0,0,1-2.7.33c-2.94-.82-5.85-1.78-8.71-2.83A7,7,0,0,0,68.16,24c-2.14,2.15-2.25,4.74-1.41,7.45.75,2.38,1.43,4.8,2.38,7.09s.59,3.6-.86,5.64C52.79,65.93,46.47,90,50.12,116.62a94.84,94.84,0,0,0,18.17,44.31A95.89,95.89,0,0,0,102.73,190a97.72,97.72,0,0,0,36.32,10.12,99.47,99.47,0,0,0,28.88-1.86,97,97,0,0,0,38.7-17.9,3.13,3.13,0,0,1,2.44-.34c3.11.9,6.14,2.07,9.25,3,2.61.76,5.15.54,7.19-1.56s2.92-4.62,1.83-7.6c-.85-2.34-1.45-4.78-2.39-7.08s-.74-3.73.85-5.9A99.49,99.49,0,0,0,245.28,102.45Z"/><path class="cls-2" d="M68.42,200c1.81,3.9,1.66,4.73-1.38,7.78l-.59.59c-11.88,12-23.69,24.14-35.67,36.08-8.37,8.34-21.29,7.12-27.71-2.39a18.11,18.11,0,0,1,1.85-22.51c12.52-12.74,25.25-25.27,37.88-37.91,2.19-2.19,4.45-1.71,6.81-.41Zm-17.07-9.22c-.89-1.2-1.54-3-2.45-3.11-1.51-.23-3.69.05-4.71,1-7.88,7.56-15.57,15.32-23.26,23.07-1.88,1.9-1.92,4.14-.35,5.66s3.81,1.36,5.65-.46q11.61-11.55,23.17-23.15A18.54,18.54,0,0,0,51.35,190.75Zm-33.49,50.3a8.89,8.89,0,0,0,8.92-8.75c.07-5.47-3.83-9.61-9-9.55S9,226.88,9,232.25A8.89,8.89,0,0,0,17.86,241.05Z"/><path class="cls-3" d="M68.42,200,49.61,181.2l15.74-15.65c1.62,1.56,3.23,3.14,4.86,4.7,4.05,3.89,8.12,7.75,12.13,11.66a18.83,18.83,0,0,1,1.78,2.35Q76.28,192.12,68.42,200Z"/><path class="cls-3" d="M245.28,102.45a99.49,99.49,0,0,1-19.48,58.39c-1.59,2.17-1.76,3.68-.85,5.9s1.54,4.74,2.39,7.08c1.09,3,.28,5.44-1.83,7.6s-4.58,2.32-7.19,1.56c-3.11-.9-6.14-2.07-9.25-3a3.13,3.13,0,0,0-2.44.34,97,97,0,0,1-38.7,17.9,99.47,99.47,0,0,1-28.88,1.86A97.72,97.72,0,0,1,102.73,190a95.89,95.89,0,0,1-34.44-29.06,94.84,94.84,0,0,1-18.17-44.31C46.47,90,52.79,65.93,68.27,44.18c1.45-2,1.75-3.49.86-5.64s-1.63-4.71-2.38-7.09c-.84-2.71-.73-5.3,1.41-7.45A7,7,0,0,1,76,22.17c2.86,1,5.77,2,8.71,2.83a3.53,3.53,0,0,0,2.7-.33A97,97,0,0,1,133.78,5.51C161.54,1.83,186.41,8.88,208.31,26A92,92,0,0,1,238.2,66.59c3.47,9.21,6.06,18.74,6.36,28.73C244.64,97.7,245,100.07,245.28,102.45Zm-173.94.29a75.51,75.51,0,0,0,73.4,75.54c44.24,1.16,77.93-33.94,77.95-74.85,0-43.55-33.14-76.43-75.31-76.67C104.91,26.51,71.54,60.18,71.34,102.74Z"/><path class="cls-4" d="M51.35,190.75a18.54,18.54,0,0,1-2,3Q37.87,205.4,26.23,216.94c-1.84,1.82-4.1,2-5.65.46s-1.53-3.76.35-5.66c7.69-7.75,15.38-15.51,23.26-23.07,1-1,3.2-1.26,4.71-1C49.81,187.77,50.46,189.55,51.35,190.75Z"/><path class="cls-5" d="M71.34,102.74c.2-42.56,33.57-76.23,76-76,42.17.24,75.34,33.12,75.31,76.67,0,40.91-33.71,76-77.95,74.85A75.51,75.51,0,0,1,71.34,102.74Z"/></g></g></svg>