<svg xmlns="http://www.w3.org/2000/svg" viewBox="0 0 60.89 38.74"><g id="Calque_2" data-name="Calque 2"><g id="Calque_1-2" data-name="Calque 1"><path d="M0,5.32C.59,4.55,1,4.48,1.8,5a28.49,28.49,0,0,0,8.69,4A21.87,21.87,0,0,0,26.58,6.81C28.16,6,29.69,5,31.2,4A25.33,25.33,0,0,1,48,.16,26.7,26.7,0,0,1,58.31,3.43a21.71,21.71,0,0,1,2.16,1.42.92.92,0,0,1,.24,1.31,1,1,0,0,1-1.33.23c-.93-.51-1.85-1.07-2.78-1.58A24.05,24.05,0,0,0,36.14,3.62a56.73,56.73,0,0,0-5.4,3c-1.88,1-3.73,2.16-5.67,3.08A21.59,21.59,0,0,1,7,10,60.86,60.86,0,0,1,.57,6.5,3.14,3.14,0,0,1,0,5.92Z"/><path d="M0,32.33c.56-.8.91-.85,1.78-.34,1.4.81,2.82,1.6,4.23,2.39a20.18,20.18,0,0,0,11.45,2.33,19.18,19.18,0,0,0,7.35-2c2.07-1.05,4-2.31,6-3.52a35.14,35.14,0,0,1,5.38-2.61,24.57,24.57,0,0,1,16.61-.47,27.75,27.75,0,0,1,7.51,3.59,1,1,0,0,1,.4,1.37,1,1,0,0,1-1.42.24c-1.52-.8-3-1.71-4.57-2.38a24.3,24.3,0,0,0-12.67-1.77A25,25,0,0,0,31.68,33a47.37,47.37,0,0,1-6.11,3.61,23,23,0,0,1-18.07.63,40.34,40.34,0,0,1-4.92-2.35A22.4,22.4,0,0,1,0,32.92Z"/><path d="M0,18.88c.49-.8.93-.93,1.69-.42A37,37,0,0,0,9,22.11a19.28,19.28,0,0,0,9.39,1,15.87,15.87,0,0,0,3.35-.72,35.08,35.08,0,0,0,6.8-3.18c1.64-1,3.32-2,5-3a22.23,22.23,0,0,1,8.68-2.59A25.94,25.94,0,0,1,56,15.79a49.57,49.57,0,0,1,4.43,2.49.92.92,0,0,1,.34,1.33,1,1,0,0,1-1.35.27c-1.51-.79-3-1.66-4.52-2.35A35.72,35.72,0,0,0,51,16.24a20.37,20.37,0,0,0-10.84-.31A25.51,25.51,0,0,0,32.41,19c-1.64,1-3.26,2-4.93,3A22.78,22.78,0,0,1,7.56,23.74a20.62,20.62,0,0,1-2.93-1.28C3.22,21.68,1.86,20.8.49,19.94A2.55,2.55,0,0,1,0,19.36Z"/></g></g></svg>